<svg width="32" height="32" viewBox="0 0 32 32" fill="none" xmlns="http://www.w3.org/2000/svg">
<g clip-path="url(#clip0_3570_19472)">
<path d="M25.9235 7.10986C25.8087 7.1086 25.6973 7.07066 25.6056 7.00158L21.9416 4.17581L18.3404 6.97014C18.1925 7.08495 17.9946 7.11214 17.8212 7.04148C17.6479 6.97082 17.5254 6.81304 17.4999 6.62757C17.4744 6.4421 17.5498 6.25712 17.6977 6.14232L21.6202 3.10697C21.8094 2.96434 22.0702 2.96434 22.2594 3.10697L26.2448 6.17375C26.4233 6.31067 26.4944 6.54617 26.4216 6.75897C26.3488 6.97176 26.1484 7.11437 25.9235 7.11335V7.10986Z" fill="url(#paint0_linear_3570_19472)"/>
<path d="M24.2756 10.5572H19.679C19.3773 10.5563 19.0884 10.4354 18.876 10.2211C18.6637 10.0068 18.5454 9.71674 18.5473 9.41506V5.8453C18.5473 5.55537 18.7813 5.31979 19.0712 5.31787C19.3606 5.31787 19.5951 5.55245 19.5951 5.84181V9.41506C19.5951 9.46136 19.6327 9.49889 19.679 9.49889H24.2756C24.2976 9.49891 24.3186 9.48997 24.3337 9.47414C24.3489 9.45831 24.3569 9.43697 24.356 9.41506V5.8453C24.356 5.55537 24.59 5.31979 24.8799 5.31787C25.1693 5.31787 25.4039 5.55245 25.4039 5.84181V9.41506C25.4067 9.71642 25.2891 10.0064 25.0774 10.2208C24.8656 10.4353 24.577 10.5563 24.2756 10.5572Z" fill="url(#paint1_linear_3570_19472)"/>
<path d="M14.2246 28.5231C14.3669 28.6514 14.5838 28.6514 14.7261 28.5231C17.7719 25.7755 20.0846 23.2029 21.6604 20.8049C23.2644 18.3641 24.0758 16.1419 24.0758 14.1416C24.0758 13.4634 24.0174 12.8191 23.9001 12.209C23.8329 11.8598 23.7503 11.5144 23.6523 11.173C23.5236 10.7245 22.9692 10.6079 22.6493 10.9278C22.4871 11.09 22.4294 11.3263 22.4889 11.5443C22.5888 11.9102 22.6706 12.2797 22.7343 12.6528C22.814 13.1195 22.854 13.6157 22.854 14.1416C22.854 15.8419 22.0877 17.8942 20.5312 20.304C19.01 22.659 17.0187 24.9004 14.5558 27.0275C14.5097 27.0674 14.4411 27.0674 14.3949 27.0275C11.932 24.9004 9.94076 22.659 8.41956 20.304C6.86301 17.8942 6.09672 15.8419 6.09672 14.1416C6.09672 11.6252 6.89056 9.55171 8.47392 7.91141C10.057 6.27136 12.0543 5.45056 14.4754 5.45056C14.9096 5.45056 15.3199 5.47913 15.7067 5.53601C15.9978 5.57882 16.2891 5.63775 16.5806 5.71281C16.803 5.7701 17.0436 5.7085 17.2054 5.53892C17.5097 5.22013 17.3985 4.67693 16.9511 4.55791C16.6821 4.48634 16.4069 4.42916 16.1255 4.38633C15.5869 4.30437 15.0368 4.26343 14.4754 4.26343C11.7587 4.26343 9.47579 5.20754 7.63502 7.09521C5.7942 8.98294 4.87488 11.3347 4.87488 14.1416C4.87488 16.1419 5.68635 18.3641 7.29032 20.8049C8.86612 23.2029 11.1788 25.7755 14.2246 28.5231Z" fill="#272462" stroke="#272462" stroke-width="0.25"/>
<path d="M14.7183 17.4835C16.5832 17.4835 18.095 15.9717 18.095 14.1068C18.095 12.2419 16.5832 10.7301 14.7183 10.7301C12.8535 10.7301 11.3417 12.2419 11.3417 14.1068C11.3417 15.9717 12.8535 17.4835 14.7183 17.4835Z" stroke="#272462" stroke-width="1.2"/>
</g>
<defs>
<linearGradient id="paint0_linear_3570_19472" x1="24.969" y1="3" x2="24.4207" y2="7.41723" gradientUnits="userSpaceOnUse">
<stop stop-color="#FF5574"/>
<stop offset="1" stop-color="#EF5350"/>
</linearGradient>
<linearGradient id="paint1_linear_3570_19472" x1="24.27" y1="5.31787" x2="23.1386" y2="10.7974" gradientUnits="userSpaceOnUse">
<stop stop-color="#FF5574"/>
<stop offset="1" stop-color="#EF5350"/>
</linearGradient>
<clipPath id="clip0_3570_19472">
<rect width="32" height="32" fill="white"/>
</clipPath>
</defs>
</svg>
