<svg width="32" height="32" viewBox="0 0 32 32" fill="none" xmlns="http://www.w3.org/2000/svg">
<g clip-path="url(#clip0_3570_19401)">
<path d="M24.7034 11.7954C25.0001 11.7954 25.2405 11.5549 25.2405 11.2583C25.2405 10.9617 25.0001 10.7212 24.7034 10.7212H18.7969C18.5002 10.7212 18.2598 10.9617 18.2598 11.2583C18.2598 11.5549 18.5002 11.7954 18.7969 11.7954H24.7034Z" fill="#272462" stroke="#272462" stroke-width="0.25"/>
<path d="M24.7034 14.2678C25.0001 14.2678 25.2405 14.0273 25.2405 13.7307C25.2405 13.4341 25.0001 13.1936 24.7034 13.1936H18.7969C18.5002 13.1936 18.2598 13.4341 18.2598 13.7307C18.2598 14.0273 18.5002 14.2678 18.7969 14.2678H24.7034Z" fill="#272462" stroke="#272462" stroke-width="0.25"/>
<path d="M24.7034 16.7404C25.0001 16.7404 25.2405 16.5 25.2405 16.2033C25.2405 15.9067 25.0001 15.6663 24.7034 15.6663H18.7969C18.5002 15.6663 18.2598 15.9067 18.2598 16.2033C18.2598 16.5 18.5002 16.7404 18.7969 16.7404H24.7034Z" fill="#272462" stroke="#272462" stroke-width="0.25"/>
<path d="M24.8973 21.4485C25.1937 21.4485 25.434 21.2082 25.434 20.9118C25.434 20.6153 25.1937 20.375 24.8973 20.375H5.9855C5.68905 20.375 5.44873 20.6153 5.44873 20.9118C5.44873 21.2082 5.68905 21.4485 5.98549 21.4485H24.8973Z" fill="#272462" stroke="#272462" stroke-width="0.25"/>
<rect x="6.78687" y="10.7869" width="5.66176" height="5.66176" rx="1.125" stroke="url(#paint0_linear_3570_19401)" stroke-width="1.25"/>
<path d="M5 6.35C3.53644 6.35 2.35 7.53645 2.35 9V22.3077C2.35 23.7712 3.53644 24.9577 5 24.9577H26C27.4636 24.9577 28.65 23.7712 28.65 22.3077V9C28.65 7.53645 27.4636 6.35 26 6.35H5Z" stroke="#272462" stroke-width="1.3"/>
</g>
<defs>
<linearGradient id="paint0_linear_3570_19401" x1="9.61775" y1="11.4119" x2="9.61775" y2="15.8236" gradientUnits="userSpaceOnUse">
<stop stop-color="#EF5350"/>
<stop offset="1" stop-color="#FF5574"/>
</linearGradient>
<clipPath id="clip0_3570_19401">
<rect width="32" height="32" fill="white"/>
</clipPath>
</defs>
</svg>
