<svg width="32" height="32" viewBox="0 0 32 32" fill="none" xmlns="http://www.w3.org/2000/svg">
<g clip-path="url(#clip0_3570_19333)">
<path d="M18.5253 22.0792C18.1512 22.3597 17.6835 22.6403 17.1224 22.8274C16.4677 23.0144 15.813 23.1079 15.2519 22.9209C14.6907 22.7338 14.1296 22.5468 13.662 22.1727C13.5684 22.0792 13.5684 22.0792 13.5684 22.1727C13.3814 23.0144 13.0073 23.7626 12.4461 24.4173C11.9785 24.9785 11.4173 25.4461 10.7627 25.7267C10.295 26.0072 9.82741 25.7267 9.73389 25.1655C9.73389 24.9785 9.82741 24.7914 9.92094 24.6979C10.0145 24.6044 10.108 24.5108 10.2015 24.5108C10.8562 24.1367 11.3238 23.6691 11.7914 23.1079C12.1655 22.5468 12.3526 21.9856 12.3526 21.4245C12.3526 21.0504 12.2591 20.8633 12.072 20.5828C11.7914 20.3022 11.6044 20.0216 11.4173 19.741C11.0432 19.1799 10.7627 18.7123 10.5756 18.0576C10.4821 17.8705 10.4821 17.6835 10.4821 17.4964C10.4821 17.4029 10.4821 17.3094 10.3886 17.3094C10.108 17.2159 9.82741 16.9353 9.73389 16.6547C9.26626 15.813 9.07921 14.8777 9.26626 13.9425C9.35978 13.5684 9.45331 13.2878 9.82741 13.1007C9.92094 13.0072 9.92094 12.9137 9.92094 12.8202C9.92094 12.6331 9.82741 12.4461 9.82741 12.259C9.73388 11.6043 9.82741 10.9497 10.108 10.295C10.3886 9.35972 10.9497 8.61152 11.6044 7.86332C12.2591 7.20864 13.1008 6.74101 14.0361 6.46043C14.5972 6.27338 15.1584 6.17986 15.813 6.08633C16.7483 5.99281 17.6835 6.17986 18.5253 6.55396C19.367 6.83454 20.1152 7.30216 20.7699 8.05037C21.5181 8.89209 22.0792 9.82735 22.3598 10.8561C22.5469 11.5108 22.5469 12.259 22.3598 12.9137C22.3598 13.0072 22.3598 13.0072 22.4533 13.1007C22.8274 13.2878 23.0145 13.6619 23.0145 14.036C23.108 14.8777 23.0145 15.7194 22.6404 16.4676C22.4533 16.7482 22.2663 17.0288 21.9857 17.2159L21.8922 17.3094C21.7987 17.3094 21.7051 17.4029 21.7051 17.4964C21.6116 17.9641 21.5181 18.4317 21.2375 18.8993C20.9569 19.554 20.5828 20.1151 20.0217 20.6763C19.8346 20.8633 19.7411 21.1439 19.7411 21.518C19.8346 22.2662 20.1152 22.9209 20.5828 23.482C20.9569 23.9497 21.4246 24.3238 21.9857 24.6044C22.1728 24.6979 22.3598 24.8849 22.3598 25.072C22.4533 25.5396 21.9857 25.9137 21.5181 25.8202C21.331 25.7267 21.2375 25.6331 21.0505 25.5396C20.2087 24.9785 19.4605 24.4173 18.9929 23.482C18.8058 23.1079 18.5253 22.6403 18.5253 22.0792ZM16.0001 7.39569C15.7195 7.39569 15.3454 7.39569 15.0648 7.48921C14.2231 7.58274 13.4749 7.95684 12.8202 8.51799C11.9785 9.17267 11.4173 10.0144 11.1368 11.0432C11.0432 11.4173 11.0432 11.7914 11.0432 12.1655C11.0432 12.5396 11.1368 13.0072 11.2303 13.3813C11.2303 13.8489 11.1368 14.223 10.5756 14.223C10.4821 14.223 10.4821 14.223 10.4821 14.3166C10.3886 14.9712 10.5756 15.5324 10.8562 16C10.9497 16.0935 11.0432 16.1871 11.1368 16.1871C11.4173 16.1871 11.6044 16.3741 11.6979 16.5612C11.6979 16.6547 11.7914 16.7482 11.7914 16.8418C11.885 17.59 12.1655 18.3382 12.5396 18.8993C12.9137 19.4605 13.2878 19.9281 13.7555 20.3022C14.1296 20.5828 14.4102 20.9569 14.8778 21.1439C15.5325 21.6115 16.2807 21.7051 17.1224 21.331C17.6835 21.1439 18.1512 20.7698 18.5253 20.3957C19.1799 19.8346 19.6476 19.1799 20.0217 18.4317C20.2087 18.1511 20.3958 17.777 20.3958 17.4964C20.4893 17.2159 20.4893 16.9353 20.4893 16.7482C20.5828 16.3741 20.7699 16.1871 21.0505 16.1871C21.144 16.1871 21.2375 16.0935 21.331 16C21.6116 15.5324 21.7987 14.9712 21.7051 14.3166C21.7051 14.1295 21.7051 14.1295 21.5181 14.1295C21.2375 14.1295 20.9569 13.8489 20.9569 13.5684C20.9569 13.3813 20.9569 13.1943 20.9569 13.0072C21.0505 12.6331 21.0505 12.1655 21.0505 11.6979C21.0505 11.1367 20.8634 10.6691 20.6764 10.2014C20.3958 9.6403 20.0217 9.17267 19.554 8.70504C18.5253 7.86332 17.3094 7.39569 16.0001 7.39569Z" fill="#272462"/>
<path d="M3.7482 28.2518C4.21583 28.7195 4.87051 29 5.61871 29H10.3885C10.7626 29 11.0432 28.7195 11.0432 28.3454C11.0432 27.9713 10.7626 27.6907 10.3885 27.6907H5.61871C5.33813 27.6907 5.05756 27.5972 4.77698 27.3166C4.49641 27.036 4.40288 26.7554 4.40288 26.4749V21.6115C4.40288 21.2374 4.1223 20.9569 3.7482 20.9569C3.3741 20.9569 3.09353 21.2374 3.09353 21.6115V26.3813C3 27.1295 3.28058 27.7842 3.7482 28.2518ZM20.9569 28.3454C20.9569 28.7195 21.2374 29 21.6115 29H26.3813C27.1295 29 27.7842 28.7195 28.2518 28.2518C28.7195 27.7842 29 27.1295 29 26.3813V21.6115C29 21.2374 28.7195 20.9569 28.3454 20.9569C27.9713 20.9569 27.6907 21.2374 27.6907 21.6115V26.3813C27.6907 26.6619 27.5972 26.9425 27.3166 27.2231C27.036 27.5036 26.7554 27.5972 26.4749 27.5972H21.6115C21.2374 27.6907 20.9569 27.9713 20.9569 28.3454ZM3 10.3885C3 10.7626 3.28058 11.0432 3.65468 11.0432C4.02878 11.0432 4.30936 10.7626 4.30936 10.3885V5.61871C4.30936 5.33813 4.40288 5.05756 4.68346 4.77698C4.96403 4.49641 5.24461 4.40288 5.52519 4.40288H10.3885C10.7626 4.40288 11.0432 4.1223 11.0432 3.7482C11.0432 3.3741 10.7626 3.09353 10.3885 3.09353H5.61871C4.87051 3.09353 4.21583 3.3741 3.7482 3.84173C3.28058 4.30936 3 4.96403 3 5.71224V10.3885ZM27.6907 10.3885C27.6907 10.7626 27.9713 11.0432 28.3454 11.0432C28.7195 11.0432 29 10.7626 29 10.3885V5.61871C29 4.87051 28.7195 4.21583 28.2518 3.7482C27.7842 3.28058 27.1295 3 26.3813 3H21.6115C21.2374 3 20.9569 3.28058 20.9569 3.65468C20.9569 4.02878 21.2374 4.30936 21.6115 4.30936H26.3813C26.6619 4.30936 26.9425 4.40288 27.2231 4.68346C27.5036 4.96403 27.5972 5.24461 27.5972 5.52519V10.3885H27.6907Z" fill="#272462" stroke="#272462" stroke-width="0.15"/>
<path d="M23.2949 16.6546C23.669 16.6546 23.9496 16.374 23.9496 15.9999C23.9496 15.6258 23.669 15.3452 23.2949 15.3452H8.70497C8.33087 15.3452 8.05029 15.6258 8.05029 15.9999C8.05029 16.374 8.33087 16.6546 8.70497 16.6546H23.2949Z" fill="url(#paint0_linear_3570_19333)" stroke="#EF5350" stroke-width="0.1"/>
</g>
<defs>
<linearGradient id="paint0_linear_3570_19333" x1="16.0131" y1="15.3269" x2="15.9888" y2="16.5693" gradientUnits="userSpaceOnUse">
<stop stop-color="#FF5574"/>
<stop offset="1" stop-color="#EF5350"/>
</linearGradient>
<clipPath id="clip0_3570_19333">
<rect width="32" height="32" fill="white"/>
</clipPath>
</defs>
</svg>
