<?xml version="1.0" encoding="UTF-8"?>
<svg width="20px" height="20px" viewBox="0 0 20 20" version="1.1" xmlns="http://www.w3.org/2000/svg" xmlns:xlink="http://www.w3.org/1999/xlink">
    <!-- Generator: sketchtool 64 (101010) - https://sketch.com -->
    <title>95CEF9F0-4498-4D33-818B-0F767ADBC725</title>
    <desc>Created with sketchtool.</desc>
    <g id="Page-1" stroke="none" stroke-width="1" fill="none" fill-rule="evenodd" stroke-linecap="round" stroke-linejoin="round">
        <g id="Reset-pass-3" transform="translate(-520.000000, -346.000000)" stroke="#67788E" stroke-width="1.8">
            <g id="Group" transform="translate(521.000000, 348.000000)">
                <path d="M13.86,13.4054752 C12.4613918,14.4715679 10.7583607,15.0621814 9,15.0909297 C3.27272727,15.0909297 0,8.54547515 0,8.54547515 C1.0177281,6.64884433 2.42929264,4.9917903 4.14,3.68547515 M7.28181818,2.19638424 C7.84499916,2.06455839 8.42159788,1.99866139 9,2 C14.7272727,2 18,8.54547515 18,8.54547515 C17.5033469,9.47460844 16.9110453,10.3493502 16.2327273,11.1554752 M10.7345455,10.2800207 C10.1226417,10.9367038 9.20109095,11.207018 8.33141812,10.9849188 C7.46174528,10.7628196 6.78265559,10.0837299 6.56055641,9.21405703 C6.33845722,8.3443842 6.60877142,7.42283341 7.26545455,6.8109297" id="Shape"></path>
                <line x1="0" y1="-1" x2="18" y2="17" id="Shape"></line>
            </g>
        </g>
    </g>
</svg>