<svg width="14" height="14" viewBox="0 0 14 14" fill="none" xmlns="http://www.w3.org/2000/svg">
<path d="M6.89173 0C3.08513 0 0 3.0842 0 6.89173C0 10.6974 3.08513 13.783 6.89173 13.783C10.6969 13.783 13.7825 10.6974 13.7825 6.89173C13.7825 3.0842 10.6974 0 6.89173 0Z" fill="#E3EFFF"/>
<path d="M7.76207 5.66086H6.21236V5.66347H5.63556V6.56432H6.21236V9.78171H5.6001V10.6426H6.21236V10.6486H7.76207V10.6426H8.26906V9.78171H7.76207V5.66086Z" fill="#2B6AD8"/>
<path d="M6.97641 5.04896C7.49721 5.04896 7.81268 4.70251 7.81268 4.27355C7.8026 3.836 7.49684 3.5 6.99732 3.5C6.49854 3.5 6.17188 3.83563 6.17188 4.27355C6.1715 4.70251 6.48772 5.04896 6.97641 5.04896Z" fill="#2B6AD8"/>
</svg>
