<?xml version="1.0" encoding="UTF-8"?>
<svg width="14px" height="14px" viewBox="0 0 14 14" version="1.1" xmlns="http://www.w3.org/2000/svg" xmlns:xlink="http://www.w3.org/1999/xlink">
    <!-- Generator: sketchtool 64 (101010) - https://sketch.com -->
    <title>3A319EF5-E9E8-4DE6-9650-C79246F59CA4</title>
    <desc>Created with sketchtool.</desc>
    <g id="Page-1" stroke="none" stroke-width="1" fill="none" fill-rule="evenodd">
        <g id="KYC-verification-settings-new" transform="translate(-553.000000, -301.000000)" fill-rule="nonzero">
            <g id="Group-7" transform="translate(359.000000, 299.000000)">
                <g id="Group-6">
                    <g id="Group-14-Copy" transform="translate(194.000000, 2.000000)">
                        <g id="Group-16" transform="translate(0.000000, -0.000000)">
                            <path d="M6.89173333,-4.88498131e-14 C3.08513333,-4.88498131e-14 -1.45661261e-13,3.0842 -1.45661261e-13,6.89173333 C-1.45661261e-13,10.6974 3.08513333,13.783 6.89173333,13.783 C10.6969333,13.783 13.7825333,10.6974 13.7825333,6.89173333 C13.7825333,3.0842 10.6974,-4.88498131e-14 6.89173333,-4.88498131e-14 Z" id="Shape" fill="#E3EFFF"></path>
                            <polygon id="Path" fill="#2B6AD8" points="7.76197333 5.66085333 6.21226667 5.66085333 6.21226667 5.66346667 5.63546667 5.66346667 5.63546667 6.56432 6.21226667 6.56432 6.21226667 9.78170667 5.6 9.78170667 5.6 10.6426133 6.21226667 10.6426133 6.21226667 10.6485867 7.76197333 10.6485867 7.76197333 10.6426133 8.26896 10.6426133 8.26896 9.78170667 7.76197333 9.78170667"></polygon>
                            <path d="M6.97648,5.04896 C7.49728,5.04896 7.81274667,4.70250667 7.81274667,4.27354667 C7.80266667,3.836 7.49690667,3.5 6.99738667,3.5 C6.49861333,3.5 6.17194634,3.83562667 6.17194634,4.27354667 C6.17157333,4.70250667 6.48778667,5.04896 6.97648,5.04896 Z" id="Path" fill="#2B6AD8"></path>
                        </g>
                    </g>
                </g>
            </g>
        </g>
    </g>
</svg>