<svg width="34" height="34" viewBox="0 0 34 34" fill="none" xmlns="http://www.w3.org/2000/svg">
<path fill-rule="evenodd" clip-rule="evenodd" d="M16.8037 6.9319C14.4462 6.9319 12.5279 8.85021 12.5279 11.2077C12.5279 13.5659 14.4462 15.4842 16.8037 15.4842C19.1612 15.4842 21.0802 13.5659 21.0802 11.2077C21.0802 8.85021 19.1612 6.9319 16.8037 6.9319ZM16.8043 17.1799C13.5113 17.1799 10.832 14.5012 10.832 11.2076C10.832 7.91468 13.5113 5.23596 16.8043 5.23596C20.0979 5.23596 22.7766 7.91468 22.7766 11.2076C22.7766 14.5012 20.0979 17.1799 16.8043 17.1799ZM4 28.6939V26.1383C4 22.5126 11.9381 20.2641 16.5088 20.1686L14.636 22.0042C10.8045 22.4825 6.26967 24.1982 5.73623 25.878L5.38039 26.9981H14.7405L16.4364 28.6939H4Z" fill="#272462"/>
<path d="M30.0001 19.3446L22.6317 26.713C22.5259 26.8188 22.353 26.8188 22.2467 26.713L19.1992 23.665" stroke="#EF5350" stroke-width="2" stroke-linecap="round"/>
</svg>
