<svg width="18" height="18" viewBox="0 0 18 18" fill="none" xmlns="http://www.w3.org/2000/svg">
<g clip-path="url(#clip0_321_1249)">
<path d="M8.55505 9.02906C6.07412 9.0339 4.04779 7.01023 4.03812 4.5218C4.02845 2.02852 6.05961 -0.00483269 8.55505 8.62731e-06C11.0456 0.00484994 13.0623 2.02368 13.0575 4.51211C13.0526 7.00539 11.0408 9.02422 8.55505 9.02906Z" fill="#9CA1A7"/>
<path d="M10.5185 17.9903C10.4266 17.9951 10.3783 18 10.3251 18C7.32668 18 4.32829 18 1.3299 17.9951C1.10744 17.9951 0.880143 17.9758 0.662518 17.9225C0.207924 17.8063 -0.043554 17.4965 -2.89838e-05 17.0317C0.043496 16.5669 0.130546 16.1022 0.251449 15.6471C0.701207 13.9962 1.54753 12.5729 2.7759 11.3819C3.5932 10.5879 4.53624 9.97791 5.59535 9.55671C5.65338 9.53251 5.74043 9.55187 5.79847 9.58576C6.37396 9.90045 6.96881 10.1522 7.62168 10.2635C8.16816 10.3604 8.71948 10.341 9.26596 10.2684C9.29014 10.2635 9.31432 10.2635 9.36751 10.2587C8.51152 11.5126 8.173 12.873 8.39546 14.3545C8.62275 15.8311 9.33366 17.0317 10.5185 17.9903Z" fill="#9CA1A7"/>
<path d="M13.6426 9.19828C16.022 9.1886 17.9903 11.1445 18 13.5361C18.0096 15.9471 16.0655 17.9078 13.6571 17.9223C11.2681 17.9368 9.30947 15.9761 9.29496 13.5651C9.28529 11.1735 11.2391 9.2128 13.6426 9.19828ZM13.0526 14.209C12.6754 13.8314 12.3224 13.4683 11.9597 13.1149C11.6937 12.8535 11.3261 12.8486 11.0892 13.0955C10.8522 13.3376 10.8522 13.6959 11.1085 13.9573C11.6018 14.4608 12.1047 14.9594 12.6029 15.4533C12.8785 15.7244 13.2219 15.7244 13.4975 15.4484C14.3922 14.5576 15.2821 13.6668 16.1719 12.7712C16.4476 12.4952 16.4524 12.1321 16.2009 11.8852C15.9543 11.6431 15.5916 11.6625 15.3159 11.9288C15.0983 12.1418 14.8855 12.3597 14.6679 12.5775C14.1407 13.1149 13.6039 13.6523 13.0526 14.209Z" fill="#9CA1A7"/>
</g>
<defs>
<clipPath id="clip0_321_1249">
<rect width="18" height="18" fill="white"/>
</clipPath>
</defs>
</svg>
